<?xml version="1.0" encoding="UTF-8"?>
<svg id="Capa_2" data-name="Capa 2" xmlns="http://www.w3.org/2000/svg" viewBox="0 0 512 512">
  <defs>
    <style>
      .cls-1 {
        fill: #fff;
      }
    </style>
  </defs>
  <g id="Layer_1" data-name="Layer 1">
    <path class="cls-1" d="m256,512C114.84,512,0,397.16,0,256S114.84,0,256,0s256,114.84,256,256-114.84,256-256,256Zm0-469.33c-117.63,0-213.33,95.7-213.33,213.33s95.7,213.33,213.33,213.33,213.33-95.7,213.33-213.33S373.63,42.67,256,42.67Zm-93.1,255.38l-27.78,21.33c-9.51,9.51-9.51,24.96,0,34.47l11.14,12.8c11.75,11.78,27.24,17.34,42.67,17.34,79.23,0,195.05-109.72,195.05-195.05,0-15.42-5.57-30.91-17.34-42.67l-12.8-11.14c-9.51-9.51-24.96-9.51-34.47,0l-21.33,27.78c-9.51,9.51-9.51,24.96,0,34.47l18.15,22.81c-19.22,47.87-51.82,79.15-96,96l-22.81-18.15c-9.51-9.51-24.96-9.51-34.47,0h0Z"/>
  </g>
</svg>